<?xml version="1.0" encoding="UTF-8" standalone="no"?>
<!-- Created with Inkscape (http://www.inkscape.org/) -->

<svg
   xmlns:dc="http://purl.org/dc/elements/1.1/"
   xmlns:cc="http://creativecommons.org/ns#"
   xmlns:rdf="http://www.w3.org/1999/02/22-rdf-syntax-ns#"
   xmlns:svg="http://www.w3.org/2000/svg"
   xmlns="http://www.w3.org/2000/svg"
   xmlns:sodipodi="http://sodipodi.sourceforge.net/DTD/sodipodi-0.dtd"
   xmlns:inkscape="http://www.inkscape.org/namespaces/inkscape"
   width="117.17262mm"
   height="162.52975mm"
   viewBox="0 0 117.17262 162.52975"
   version="1.1"
   id="svg8"
   inkscape:version="0.92.3 (2405546, 2018-03-11)"
   sodipodi:docname="banana.svg"
   inkscape:export-xdpi="96"
   inkscape:export-ydpi="96">
  <defs
     id="defs2">
    <clipPath
       clipPathUnits="userSpaceOnUse"
       id="clipPath959">
      <rect
         style="opacity:1;vector-effect:none;fill:#000000;fill-opacity:0.49803922;stroke:none;stroke-width:1.15388966;stroke-linecap:butt;stroke-linejoin:miter;stroke-miterlimit:4;stroke-dasharray:none;stroke-dashoffset:0;stroke-opacity:1;paint-order:normal"
         id="rect961"
         width="8.9697208"
         height="6.2245941"
         x="445.17435"
         y="-726.01575" />
    </clipPath>
  </defs>
  <sodipodi:namedview
     id="base"
     pagecolor="#ffffff"
     bordercolor="#666666"
     borderopacity="1.0"
     inkscape:pageopacity="1"
     inkscape:pageshadow="2"
     inkscape:zoom="0.9899495"
     inkscape:cx="211.75799"
     inkscape:cy="410.99387"
     inkscape:document-units="mm"
     inkscape:current-layer="layer1"
     showgrid="false"
     inkscape:window-width="1855"
     inkscape:window-height="1018"
     inkscape:window-x="65"
     inkscape:window-y="32"
     inkscape:window-maximized="1"
     inkscape:snap-nodes="true"
     inkscape:measure-start="300.714,432.857"
     inkscape:measure-end="0,0"
     fit-margin-top="0"
     fit-margin-left="0"
     fit-margin-right="0"
     fit-margin-bottom="0"
     inkscape:snap-midpoints="true"
     inkscape:snap-smooth-nodes="true"
     inkscape:snap-intersection-paths="true"
     inkscape:object-paths="true"
     inkscape:snap-global="true" />
  <metadata
     id="metadata5">
    <rdf:RDF>
      <cc:Work
         rdf:about="">
        <dc:format>image/svg+xml</dc:format>
        <dc:type
           rdf:resource="http://purl.org/dc/dcmitype/StillImage" />
        <dc:title></dc:title>
      </cc:Work>
    </rdf:RDF>
  </metadata>
  <g
     inkscape:label="Layer 1"
     inkscape:groupmode="layer"
     id="layer1"
     transform="translate(7.909524,802.2724)">
    <g
       id="g889"
       transform="translate(-81.074262,-16.207509)">
      <path
         sodipodi:nodetypes="csccscc"
         inkscape:connector-curvature="0"
         id="path1540-6"
         d="m 143.87047,-751.11957 c 1.5201,1.73725 28.63953,25.36808 5.49224,65.2267 -24.34444,41.92002 -41.94305,50.07055 -50.775866,46.20003 -5.83184,-3.01381 -2.88296,-9.09072 -2.88296,-9.09072 0,0 13.900336,-30.27039 20.636386,-45.81705 9.71269,-22.41669 11.99703,-39.38112 7.39375,-51.03843 -4.0572,-10.76037 13.98477,-11.86892 20.13645,-5.48053 z"
         style="fill:#ffff00;fill-opacity:1;stroke:#000000;stroke-width:0.34058738;stroke-linecap:butt;stroke-linejoin:miter;stroke-miterlimit:4;stroke-dasharray:none;stroke-opacity:1" />
      <path
         sodipodi:nodetypes="cc"
         inkscape:connector-curvature="0"
         id="path1542-7"
         d="m 124.45996,-752.10137 c 0,0 22.83485,23.89148 -29.492086,106.38783"
         style="fill:none;stroke:#000000;stroke-width:0.3406184;stroke-linecap:butt;stroke-linejoin:miter;stroke-miterlimit:4;stroke-dasharray:none;stroke-opacity:1" />
      <path
         sodipodi:nodetypes="cc"
         inkscape:connector-curvature="0"
         id="path1544-5"
         d="m 135.06174,-755.08126 c 0,0 54.32195,29.88575 -27.04027,115.33566"
         style="fill:none;stroke:#000000;stroke-width:0.3406184;stroke-linecap:butt;stroke-linejoin:miter;stroke-miterlimit:4;stroke-dasharray:none;stroke-opacity:1" />
      <path
         inkscape:connector-curvature="0"
         id="path822-6-6"
         d="m 138.91199,-710.66437 a 7.246163,3.7623834 84.196729 0 0 -3.36725,2.90892 7.246163,3.7623834 84.196729 0 0 -3.36134,-4.66723 7.246163,3.7623834 84.196729 0 0 -3.81416,6.13649 7.246163,3.7623834 84.196729 0 0 1.46904,6.01627 41.348885,21.469342 84.19673 0 1 2.34512,0.33665 41.348885,21.469342 84.19673 0 1 2.36971,0.88762 7.246163,3.7623834 84.196729 0 0 0.9995,-1.99311 7.246163,3.7623834 84.196729 0 0 1.01425,2.52715 41.348885,21.469342 84.19673 0 1 2.34513,0.33666 41.348885,21.469342 84.19673 0 1 2.36972,0.88761 7.246163,3.7623834 84.196729 0 0 1.44445,-5.21756 7.246163,3.7623834 84.196729 0 0 -3.81415,-8.15946 z"
         style="opacity:1;fill:#ffff00;fill-opacity:1;stroke:#000000;stroke-width:0.58792084;stroke-linecap:butt;stroke-miterlimit:4;stroke-dasharray:none;stroke-dashoffset:0;stroke-opacity:1" />
      <path
         inkscape:connector-curvature="0"
         id="rect823-0-2"
         d="m 128.38476,-705.71481 a 7.246163,3.7623833 84.196728 0 0 1.45361,5.445 41.348885,21.469342 84.19673 0 1 2.34519,0.3367 41.348885,21.469342 84.19673 0 1 2.36947,0.88741 7.246163,3.7623833 84.196728 0 0 0.99949,-1.99319 7.246163,3.7623833 84.196728 0 0 1.01425,2.52722 41.348885,21.469342 84.19673 0 1 2.34516,0.33668 41.348885,21.469342 84.19673 0 1 2.36987,0.88752 7.246163,3.7623833 84.196728 0 0 1.42815,-4.62836 z"
         style="opacity:1;fill:#ffffff;fill-opacity:1;stroke:#000000;stroke-width:0.39698163;stroke-linecap:butt;stroke-miterlimit:4;stroke-dasharray:none;stroke-dashoffset:0;stroke-opacity:1" />
      <path
         inkscape:connector-curvature="0"
         id="path832-6-9"
         d="m 129.44955,-705.45588 a 2.0667399,1.5135622 36.495767 0 0 -0.0111,0.17145 2.0667399,1.5135622 36.495767 0 0 1.88954,2.15683 2.0667399,1.5135622 36.495767 0 0 1.88954,-1.15464 2.0667399,1.5135622 36.495767 0 0 -0.0122,-0.17765 z"
         style="opacity:1;fill:#2ad4ff;fill-opacity:1;stroke:#000000;stroke-width:0.42106119;stroke-linecap:butt;stroke-miterlimit:4;stroke-dasharray:none;stroke-dashoffset:0;stroke-opacity:1" />
      <path
         inkscape:connector-curvature="0"
         id="ellipse834-2-1"
         d="m 135.99061,-703.72122 a 2.0667399,1.5135622 36.495767 0 0 -0.0111,0.17145 2.0667399,1.5135622 36.495767 0 0 1.88956,2.15683 2.0667399,1.5135622 36.495767 0 0 1.88994,-1.15453 2.0667399,1.5135622 36.495767 0 0 -0.0127,-0.17775 z"
         style="opacity:1;fill:#2ad4ff;fill-opacity:1;stroke:#000000;stroke-width:0.42106119;stroke-linecap:butt;stroke-miterlimit:4;stroke-dasharray:none;stroke-dashoffset:0;stroke-opacity:1" />
      <g
         transform="matrix(0.77088257,0.20443375,0,0.81773503,63.064904,-839.10249)"
         id="g940-6-2">
        <path
           style="fill:#ffffff;fill-opacity:1;stroke:#000000;stroke-width:0.52913481;stroke-linecap:butt;stroke-linejoin:miter;stroke-miterlimit:4;stroke-dasharray:none;stroke-opacity:1"
           d="m 86.674522,156.17904 h 14.806158 c 0,0 -8.636927,20.59117 -14.806158,0 z"
           id="path900-9-7"
           inkscape:connector-curvature="0" />
        <path
           style="fill:#4e311f;fill-opacity:1;stroke:#000000;stroke-width:0.69999999;stroke-linecap:butt;stroke-linejoin:miter;stroke-miterlimit:4;stroke-dasharray:none;stroke-opacity:1"
           d="m 55.514587,144.75875 c 0,0 -9.932905,13.9789 1.980759,17.34933 11.58686,3.27797 35.175717,-5.2974 36.481642,-5.64853 1.305922,0.35113 25.272252,8.9265 36.859112,5.64853 11.91366,-3.37043 1.98127,-17.34933 1.98127,-17.34933 0,0 1.68785,21.67164 -16.61965,10.09241 -15.32211,-9.691 -20.684917,-4.08303 -22.031744,-1.99161 -1.346671,-2.0913 -6.709799,-7.69962 -22.032248,1.99161 -18.307505,11.57923 -16.619141,-10.09241 -16.619141,-10.09241 z"
           id="path861-9-0"
           inkscape:connector-curvature="0"
           sodipodi:nodetypes="cscscscsc" />
        <circle
           style="opacity:1;fill:#ffff00;fill-opacity:1;stroke:#000000;stroke-width:0.69999999;stroke-linecap:butt;stroke-miterlimit:4;stroke-dasharray:none;stroke-dashoffset:0;stroke-opacity:1"
           id="path896-2-9"
           cx="93.889282"
           cy="151.13899"
           r="2.0788691" />
        <path
           style="fill:none;stroke:#000000;stroke-width:0.44216827;stroke-linecap:butt;stroke-linejoin:miter;stroke-miterlimit:4;stroke-dasharray:none;stroke-opacity:1"
           d="m 90.109523,157.37559 -0.283482,5.95312"
           id="path902-9-3"
           inkscape:connector-curvature="0"
           sodipodi:nodetypes="cc" />
        <path
           style="fill:none;stroke:#000000;stroke-width:0.44216827;stroke-linecap:butt;stroke-linejoin:miter;stroke-miterlimit:4;stroke-dasharray:none;stroke-opacity:1"
           d="m 97.196579,157.32834 -0.283482,5.95312"
           id="path902-7-6-6"
           inkscape:connector-curvature="0"
           sodipodi:nodetypes="cc" />
        <path
           style="fill:none;stroke:#000000;stroke-width:0.55180359;stroke-linecap:butt;stroke-linejoin:miter;stroke-miterlimit:4;stroke-dasharray:none;stroke-opacity:1"
           d="m 93.794792,156.38341 -0.283482,8.78794"
           id="path902-7-5-5-0"
           inkscape:connector-curvature="0"
           sodipodi:nodetypes="cc" />
      </g>
      <path
         sodipodi:nodetypes="ccccc"
         inkscape:connector-curvature="0"
         id="path901"
         d="m 124.81786,-751.62464 c 2.63315,1.22827 9.6179,-0.89559 10.58126,-3.25767 -2.4726,-6.80279 -5.62371,-10.77404 -7.41269,-12.99995 -3.2243,-3.83042 -7.94723,-4.60987 -8.35595,2.58332 0.0963,5.1021 3.22858,11.18623 5.18738,13.6743 z"
         style="fill:#4e311f;fill-opacity:1;stroke:#000000;stroke-width:0.36743098;stroke-linecap:butt;stroke-linejoin:miter;stroke-miterlimit:4;stroke-dasharray:none;stroke-opacity:1" />
      <path
         style="fill:#4e311f;fill-opacity:1;stroke:#000000;stroke-width:0.4852089;stroke-linecap:butt;stroke-linejoin:miter;stroke-miterlimit:4;stroke-dasharray:none;stroke-opacity:1"
         d="m 129.02408,-713.50387 0.12741,-1.44764 c 3.13863,-1.98553 5.98091,0.67943 5.98091,0.67943 l -0.20561,1.61811 c 0,0 -1.71142,-2.51587 -5.90273,-0.8499 z"
         id="path1550-3"
         inkscape:connector-curvature="0"
         sodipodi:nodetypes="ccccc" />
      <path
         style="fill:#4e311f;fill-opacity:1;stroke:#000000;stroke-width:0.4852089;stroke-linecap:butt;stroke-linejoin:miter;stroke-miterlimit:4;stroke-dasharray:none;stroke-opacity:1"
         d="m 143.02074,-714.49005 0.35036,-1.41037 c -2.32221,-2.89839 -5.87671,-1.30276 -5.87671,-1.30276 l -0.33185,1.597 c 0,0 2.43664,-1.82244 5.85823,1.11613 z"
         id="path1550-6-6"
         inkscape:connector-curvature="0"
         sodipodi:nodetypes="ccccc" />
    </g>
  </g>
</svg>
